<?xml version="1.0" encoding="UTF-8"?>
<svg width="91px" height="98px" viewBox="0 0 91 98" xmlns="http://www.w3.org/2000/svg" xmlns:xlink="http://www.w3.org/1999/xlink" version="1.1">
 <!-- Generated by Pixelmator Pro 2.0.6 -->
 <path id="Path-copy" d="M24.484 67.402 C25.905 64.915 45.439 37.879 47.5 21.901 49.245 8.373 35.861 1.175 27.204 18.329 17.199 38.158 22.009 75.157 22.284 78.889 22.923 87.571 26.434 88.259 28.286 88.259 37.987 88.259 45.292 74.112 46.98 71.335 47.402 70.642 50.118 66.656 51.704 66.836 57.361 67.484 63.003 82.015 68.87 82.015 69.583 82.015 72.524 82.691 75.925 79.295 79.616 75.604 82.107 70.691 82.107 70.691 82.107 70.691 85.892 60.761 74.851 74.919 71.18 79.627 68.521 79.061 63.38 71.974 61.184 68.946 56.825 61.764 51.544 61.4 47.431 61.4 42.559 69.675 42.531 69.712 36.881 78.004 37.59 77.079 36.144 78.717 34.431 80.663 31.559 82.888 29.117 82.507 28.843 82.462 27.778 82.294 27.053 79.205 25.545 72.81 24.57 60.695 24.648 58.376 25.565 31.324 30.039 17.845 35.943 14.228 45.001 8.676 43.022 21.807 41.449 26.887 36.844 41.763 12.078 77.959 8.067 86.587 6.142 90.729 10.673 90.676 10.673 89.763" fill="#f34e3a" fill-opacity="1" stroke="#f34e3a" stroke-width="5.42" stroke-opacity="1" stroke-linejoin="round" stroke-linecap="round"/>
</svg>
